Coordinates
version=1
nRows=14
nColumns=36
inDegrees=yes

Units are S.I. units (second, meters, Newtons, ...)
If the header above contains a line with 'inDegrees', this indicates whether rotational values are in degrees (yes) or radians (no).

endheader
time	pelvis_tilt	pelvis_list	pelvis_rotation	pelvis_tx	pelvis_ty	pelvis_tz	hip_flexion_r	hip_adduction_r	hip_rotation_r	knee_angle_r	knee_angle_r_beta	ankle_angle_r	subtalar_angle_r	mtp_angle_r	hip_flexion_l	hip_adduction_l	hip_rotation_l	knee_angle_l	knee_angle_l_beta	ankle_angle_l	subtalar_angle_l	mtp_angle_l	lumbar_extension	lumbar_bending	lumbar_rotation	arm_flex_r	arm_add_r	arm_rot_r	elbow_flex_r	pro_sup_r	arm_flex_l	arm_add_l	arm_rot_l	elbow_flex_l	pro_sup_l
      2.51666670	     -0.11986882	      0.43839702	      5.65100655	      0.33761416	      1.23813666	      0.01764889	     22.19020536	     -2.97376793	     -4.45192609	      6.09997549	      0.10646466	    -28.89796301	     -1.26487782	     -7.49999987	     -6.92138791	      2.10970444	      2.06096976	     25.46456473	      0.44444050	     -7.09077431	     -1.67457718	     -7.49999987	     -6.69137657	     -1.79953523	    -11.37043686	    -29.05883590	     -7.83466640	    -45.89056539	     68.23445760	     91.69458903	     -7.71972775	    -29.39448842	    -53.73751056	     44.64505451	     83.75582694
      2.53333330	      0.91978589	      1.31608028	      4.29331107	      0.35450240	      1.23204888	      0.02211600	     21.28407244	     -3.20885203	     -4.70302531	      6.22946591	      0.10872469	    -30.00186596	     -1.41143186	     -7.49999987	     -3.50315410	      3.44149334	      2.69175891	     32.55312441	      0.56815920	     -9.73860272	     -5.90531345	     -7.49999987	     -8.81539894	     -2.68700886	    -11.11533502	    -29.49060828	     -9.93331852	    -48.21442492	     65.56373565	     92.63773391	    -12.48595222	    -30.99526607	    -59.89014773	     44.20076840	     81.16277751
      2.55000000	      1.56453581	      2.23857441	      3.15683020	      0.37419259	      1.22551635	      0.02535502	     20.51608022	     -3.56530113	     -5.35528701	      6.05928111	      0.10575441	    -30.86273904	     -1.23232874	     -7.49999987	      0.73447878	      4.75086614	      2.47403291	     38.58007312	      0.67334930	     -8.77467764	     -8.54284072	     -7.49999987	    -10.49245140	     -3.64434706	     -9.75717600	    -31.20057721	    -10.95178016	    -51.54525356	     62.65473969	     91.59961695	    -16.66140042	    -32.66011053	    -63.13124267	     42.11807577	     79.83488563
      2.56666670	      1.66116674	      3.04736628	      2.20000641	      0.39100350	      1.22013660	      0.02807582	     20.09308336	     -4.06158169	     -6.60387182	      5.34524070	      0.09329205	    -32.52419627	     -0.20437860	     -7.49999987	      5.08189915	      6.01380413	      1.68682298	     41.30359344	      0.72088370	    -13.69125875	     -8.20514761	     -7.49999987	    -11.72351749	     -4.55480755	     -8.50944239	    -33.38021146	    -11.51950473	    -54.78667056	     60.08372953	     90.99560580	    -21.52039512	    -33.40041197	    -66.68290676	     40.29813630	     78.72826197
      2.58333330	      1.82270148	      3.78505504	      1.37266149	      0.40813031	      1.22025277	      0.03034081	     19.29137347	     -4.48149604	     -7.75127357	      4.19375008	      0.07319475	    -34.44822538	      1.83081111	     -7.49999987	      8.42096807	      7.02851777	      1.42967302	     40.82346418	      0.71250386	    -17.27229743	     -6.05368787	     -7.49999987	    -12.99556623	     -5.50263198	     -7.61147085	    -35.14540163	    -11.79748569	    -57.61764774	     56.71365693	     90.47562038	    -26.02763984	    -33.27958309	    -70.84065513	     38.20619772	     77.35608864
      2.60000000	      1.73108990	      3.88341046	      0.99157183	      0.42392102	      1.20001569	      0.03150715	     18.90507798	     -4.50790924	     -7.96951952	      3.50674781	      0.06120430	    -35.17338573	      3.26343626	     -7.49999987	     11.07241496	      6.96260402	      1.67623336	     38.74003025	      0.67614108	    -15.38399770	     -5.72470974	     -7.49999987	    -13.90205802	     -5.69148280	     -6.67266782	    -37.76869278	    -12.06022753	    -60.25253902	     53.75926377	     89.21700613	    -30.65681134	    -32.59146570	    -75.09515567	     36.89407098	     75.16541394
      2.61666670	      1.52726204	      3.49960252	      1.03732021	      0.43920412	      1.18685410	      0.03008291	     18.61312062	     -4.35496994	     -7.16796409	      3.25431122	      0.05679845	    -35.07944046	      4.16838445	     -7.49999987	     13.35574766	      6.15246072	      2.01784315	     34.42447847	      0.60082049	    -13.26700980	     -7.93142399	     -7.49999987	    -14.74871317	     -4.99629181	     -5.36468460	    -41.51248020	    -11.71223199	    -61.83364389	     51.91524944	     88.70580851	    -34.56491317	    -31.77112256	    -76.78673512	     35.41492095	     74.54044982
      2.63333330	      1.28291996	      2.48009802	      0.79317898	      0.45713243	      1.16104146	      0.03419276	     18.27883089	     -3.07657464	     -6.78993437	      3.10609326	      0.05421155	    -35.42958702	      4.21829322	     -7.49999987	     14.95292577	      3.80416585	      2.69545348	     28.10324546	      0.49049416	    -14.54840026	     -8.39209481	     -7.49999987	    -15.37683065	     -4.07761086	     -5.77368942	    -43.54680032	    -12.58637420	    -62.25723328	     48.21914839	     79.00236576	    -40.95644605	    -28.62016959	    -79.70552858	     35.34379708	     58.17341829
      2.65000000	      0.75740587	     -0.08839129	      0.99121105	      0.47281636	      1.12903559	      0.03339024	     18.65564028	     -0.41588111	     -6.24773463	      3.76652701	      0.06573830	    -34.67964171	      3.53094190	     -7.49999987	     15.38025686	      0.14138559	      2.79013053	     20.43056883	      0.35658069	    -14.15911237	     -5.80018804	     -7.49999987	    -15.23909731	     -0.76921196	     -4.63467857	    -47.45505215	    -11.94745439	    -65.12283704	     46.91295219	     78.07600718	    -44.98780613	    -25.88722982	    -82.38724509	     34.24373697	     56.72707483
      2.66666670	      0.55971913	     -2.22464947	      1.50104924	      0.49029213	      1.10089006	      0.03160895	     18.82785575	      1.61492008	     -5.35954844	      4.61279538	      0.08050847	    -35.21737467	      2.57418880	     -7.49999987	     15.48166185	     -2.45896387	      2.36354022	     15.38188058	      0.26846446	    -13.99671205	     -2.08268350	     -7.49999987	    -15.07486315	      2.16595433	     -4.49213722	    -53.26021754	     -8.62655557	    -68.26261967	     40.08603153	     77.26965182	    -48.44401890	    -22.44218050	    -85.67158521	     32.55183038	     55.45967157
      2.68333330	      0.74867668	     -2.46571967	      1.06937752	      0.50606201	      1.07664869	      0.03187684	     18.25487547	      1.32532535	     -1.34479752	      6.73821170	      0.11760398	    -36.07510397	      1.20110545	     -7.49999987	     16.52924641	     -3.75214990	      3.65015448	     11.63101530	      0.20299951	    -15.74386751	     -1.34727596	     -7.49999987	    -14.81009199	      2.52004254	     -5.82319355	    -57.26484085	     -5.40366153	    -73.63306282	     25.98152663	     75.34319451	    -50.47484548	    -17.06647419	    -91.96912411	     34.21135682	     52.42912073
      2.70000000	      0.93861720	     -2.41145988	      1.05870053	      0.51883701	      1.04332343	      0.03242184	     18.90856044	      0.88513149	      2.10496573	     10.11856673	      0.17660230	    -37.44428713	     -2.10327660	     -7.49999987	     17.84164401	     -4.33842761	      5.38511269	     11.03673366	      0.19262734	    -17.46689282	     -2.78161976	     -7.49999987	    -14.47241432	      2.60464098	     -9.56251724	    -58.96931873	     -6.38346416	    -77.50296355	     16.14348444	     73.50154198	    -52.27249908	    -10.80176620	    -96.02555944	     37.52524808	     49.76296145
      2.71666670	      1.51615988	     -2.48534637	      1.13360161	      0.53280709	      1.00958061	      0.03290390	     19.76482208	      0.90502280	      5.80858036	     14.52674497	      0.25353953	    -36.77625678	     -5.49412245	     -7.49999987	     19.37840935	     -4.72883251	      8.98856509	     13.06681628	      0.22805897	    -19.06183075	     -4.72495015	     -7.49999987	    -15.16319967	      2.72250457	    -12.30946638	    -56.40646637	     -6.86806703	    -91.67316831	     13.34506794	     57.71883370	    -50.55858643	     -5.63684622	    -96.70911209	     42.68744030	     27.45963949
      2.73333330	      2.31960745	     -2.87632455	      1.16045615	      0.54579300	      0.98354666	      0.03401749	     21.02670689	      1.90686868	      9.33362314	     21.11754559	      0.36857070	    -31.36594146	     -9.83053169	     -7.49999987	     21.26723489	     -5.03622358	     11.59921051	     17.43109324	      0.30422997	    -18.54647662	     -7.10955580	     -7.49999987	    -16.94573912	      3.47323088	    -12.22788279	    -51.49769376	     -6.17924154	    -90.68263341	     12.29975667	     57.01996551	    -44.97974811	     -3.80080914	    -94.45928399	     44.30490152	     29.77585523
